<svg width="130" height="60" viewBox="0 0 130 60" fill="none" xmlns="http://www.w3.org/2000/svg">
<rect width="60" height="60" rx="30" fill="#FEA301"/>
<path d="M24.2812 28.25L33.375 19.1094C33.8438 18.6875 34.5469 18.6875 34.9688 19.1094L36.0469 20.1875C36.4688 20.6094 36.4688 21.3125 36.0469 21.7812L28.8281 29L36.0469 36.2656C36.4688 36.7344 36.4688 37.4375 36.0469 37.8594L34.9688 38.9375C34.5469 39.3594 33.8438 39.3594 33.375 38.9375L24.2812 29.7969C23.8594 29.375 23.8594 28.6719 24.2812 28.25Z" fill="white"/>
<rect x="70" width="60" height="60" rx="30" fill="#FEA301"/>
<path d="M106.047 29.7969L96.9531 38.9375C96.4844 39.3594 95.7812 39.3594 95.3594 38.9375L94.2812 37.8594C93.8594 37.4375 93.8594 36.7344 94.2812 36.2656L101.5 29L94.2812 21.7812C93.8594 21.3125 93.8594 20.6094 94.2812 20.1875L95.3594 19.1094C95.7812 18.6875 96.4844 18.6875 96.9531 19.1094L106.047 28.25C106.469 28.6719 106.469 29.375 106.047 29.7969Z" fill="white"/>
</svg>
